<svg width="319" height="84" viewBox="0 0 319 84" fill="none" xmlns="http://www.w3.org/2000/svg">
<g clip-path="url(#clip0_1_2)" filter="url(#filter0_d_1_2)">
<g filter="url(#filter1_d_1_2)">
<path d="M9.792 16.7478C8.832 16.1078 8.704 15.5318 9.408 15.5318H25.792C26.688 15.5318 26.752 15.8518 26.048 16.4278C24 18.2838 24.064 22.0598 26.688 28.9078L33.472 46.9558C34.944 50.7958 34.624 50.0278 35.84 53.1638C38.272 47.0838 42.112 37.4838 44.928 30.5078L44.352 28.9078C43.648 27.1158 40.064 18.8598 37.056 16.7478C36.096 16.1078 35.968 15.5318 36.672 15.5318H53.056C53.952 15.5318 54.016 15.8518 53.312 16.4278C51.264 18.2838 51.328 22.0598 53.952 28.9078L60.736 46.9558C62.208 50.7958 61.888 50.0278 63.104 53.1638C64.448 49.9638 65.984 46.1878 67.392 42.5398C70.272 35.0518 75.456 21.4838 68.288 16.4278C67.648 16.0438 67.712 15.5318 68.608 15.5318H81.664C82.368 15.5318 82.304 15.9798 81.664 16.4918C79.104 18.6038 77.056 22.9558 74.688 28.9078L62.272 59.8838C62.208 60.1398 61.888 60.3318 61.632 60.3318H56.512C56.192 60.3318 55.936 60.1398 55.808 59.8198C53.952 54.6998 53.568 53.4838 51.136 46.9558L45.824 32.8758L36.8 55.5318L35.008 59.8838C34.944 60.1398 34.624 60.3318 34.368 60.3318H29.248C28.928 60.3318 28.672 60.1398 28.544 59.8198C26.688 54.6998 26.304 53.4838 23.872 46.9558L17.088 28.9078C16.384 27.1158 12.8 18.8598 9.792 16.7478ZM95.7805 61.6118C85.4125 61.6118 77.0925 54.3158 77.0925 44.0758C77.0925 33.7718 84.7725 26.4758 93.8605 26.4758C103.589 26.4758 110.565 33.7718 111.013 43.6278C111.076 44.2678 110.629 44.7158 109.989 44.7158H86.8845C87.9725 49.8998 91.1725 56.5558 99.5565 56.5558C106.213 56.5558 109.285 52.5878 110.437 51.0518C110.949 50.4118 111.589 50.9238 111.333 51.4998C110.053 54.3158 105.189 61.6118 95.7805 61.6118ZM86.5005 42.7318H97.2525C100.069 42.7318 101.349 42.1558 101.349 37.9958C101.349 33.0038 98.5965 28.4598 93.6685 28.4598C88.3565 28.4598 86.3725 34.6038 86.3725 40.2358C86.3725 40.9398 86.4365 41.7718 86.5005 42.7318ZM112.987 60.3318C112.091 60.3318 112.475 59.8838 112.987 59.1158C115.355 55.2758 115.547 48.7478 115.547 46.9558V28.9078C115.547 27.1158 115.355 20.5878 112.987 16.7478C112.475 15.9798 112.091 15.7238 112.987 15.5318L124.635 12.6518C124.955 12.5878 125.147 12.7158 125.147 13.0358V46.9558C125.147 48.7478 125.339 55.2758 127.707 59.1158C128.155 59.8838 128.603 60.3318 127.643 60.3318H112.987ZM148.208 61.6758C138.864 61.6758 129.968 54.3158 129.968 44.0758C129.968 33.7718 137.84 26.4758 147.568 26.4758C154.8 26.4758 161.328 29.4838 163.312 34.9238C164.592 38.3798 162.096 41.0038 159.536 41.0038C157.936 41.0038 156.336 39.9798 155.504 37.5478C154.352 34.0278 152.112 28.3318 145.968 28.3318C142.32 28.3318 139.376 33.6438 139.376 38.5718C139.312 48.1718 142.768 56.4918 152.432 56.4918C156.656 56.4918 161.264 53.9318 163.312 50.9878C163.888 50.1558 164.592 50.7958 164.272 51.4998C162.544 54.8278 156.976 61.6758 148.208 61.6758ZM184.955 61.6118C174.587 61.6118 166.843 54.3158 166.843 44.0758C166.843 33.7718 174.587 26.4758 184.955 26.4758C195.323 26.4758 203.003 33.7718 203.003 44.0758C203.003 54.3158 195.323 61.6118 184.955 61.6118ZM183.355 28.4598C176.891 28.4598 176.123 34.6038 176.123 40.2358C176.123 46.9558 179.131 59.6278 186.427 59.6278C192.891 59.6278 193.787 53.2278 193.787 47.9158C193.787 40.8758 190.587 28.4598 183.355 28.4598ZM204.924 60.3318C204.029 60.3318 204.413 59.8838 204.924 59.1158C207.293 55.2758 207.485 48.7478 207.485 46.9558V42.8598C207.485 41.0678 207.293 34.5398 204.924 30.6998C204.413 29.9318 204.029 29.6758 204.924 29.4838L216.573 26.6038C216.893 26.5398 217.085 26.6678 217.085 26.9878V28.7798C219.197 27.3718 221.821 26.4758 224.829 26.4758C230.589 26.4758 235.581 28.7798 238.845 32.5558C241.277 29.1638 245.181 26.4758 250.429 26.4758C260.669 26.4758 268.477 33.7718 268.477 43.8198C268.477 44.1398 268.285 55.0838 270.845 58.7958C271.677 60.0758 271.805 60.3318 270.973 60.3318H256.317C255.229 60.3318 256.061 59.4998 256.317 59.1158C258.685 55.2758 258.813 48.1078 258.813 47.0838C258.813 36.5878 256.061 28.4598 249.021 28.4598C243.581 28.4598 242.621 34.0918 242.685 41.0678C242.812 41.9638 242.877 42.8598 242.877 43.8198C242.877 44.1398 242.685 55.0838 245.245 58.7958C246.077 60.0758 246.205 60.3318 245.373 60.3318H230.717C229.629 60.3318 230.461 59.4998 230.717 59.1158C233.085 55.2758 233.213 48.1078 233.213 47.0838C233.213 36.5878 230.461 28.4598 223.421 28.4598C218.493 28.4598 217.277 33.0678 217.085 39.1478V46.9558C217.085 48.7478 217.277 55.2758 219.645 59.1158C220.093 59.8838 220.541 60.3318 219.581 60.3318H204.924ZM291.281 61.6118C280.913 61.6118 272.593 54.3158 272.593 44.0758C272.593 33.7718 280.273 26.4758 289.361 26.4758C299.089 26.4758 306.065 33.7718 306.513 43.6278C306.576 44.2678 306.129 44.7158 305.489 44.7158H282.385C283.473 49.8998 286.673 56.5558 295.057 56.5558C301.713 56.5558 304.785 52.5878 305.937 51.0518C306.449 50.4118 307.089 50.9238 306.833 51.4998C305.553 54.3158 300.689 61.6118 291.281 61.6118ZM282.001 42.7318H292.753C295.569 42.7318 296.849 42.1558 296.849 37.9958C296.849 33.0038 294.097 28.4598 289.169 28.4598C283.857 28.4598 281.873 34.6038 281.873 40.2358C281.873 40.9398 281.937 41.7718 282.001 42.7318Z" fill="#737E53"/>
</g>
</g>
<defs>
<filter id="filter0_d_1_2" x="0" y="0" width="319" height="84" filterUnits="userSpaceOnUse" color-interpolation-filters="sRGB">
<feFlood flood-opacity="0" result="BackgroundImageFix"/>
<feColorMatrix in="SourceAlpha" type="matrix" values="0 0 0 0 0 0 0 0 0 0 0 0 0 0 0 0 0 0 127 0" result="hardAlpha"/>
<feOffset dy="4"/>
<feGaussianBlur stdDeviation="2"/>
<feComposite in2="hardAlpha" operator="out"/>
<feColorMatrix type="matrix" values="0 0 0 0 0 0 0 0 0 0 0 0 0 0 0 0 0 0 0.05 0"/>
<feBlend mode="normal" in2="BackgroundImageFix" result="effect1_dropShadow_1_2"/>
<feBlend mode="normal" in="SourceGraphic" in2="effect1_dropShadow_1_2" result="shape"/>
</filter>
<filter id="filter1_d_1_2" x="6.70399" y="10.5878" width="306.384" height="57.088" filterUnits="userSpaceOnUse" color-interpolation-filters="sRGB">
<feFlood flood-opacity="0" result="BackgroundImageFix"/>
<feColorMatrix in="SourceAlpha" type="matrix" values="0 0 0 0 0 0 0 0 0 0 0 0 0 0 0 0 0 0 127 0" result="hardAlpha"/>
<feOffset dx="2" dy="2"/>
<feGaussianBlur stdDeviation="2"/>
<feComposite in2="hardAlpha" operator="out"/>
<feColorMatrix type="matrix" values="0 0 0 0 0 0 0 0 0 0 0 0 0 0 0 0 0 0 0.1 0"/>
<feBlend mode="normal" in2="BackgroundImageFix" result="effect1_dropShadow_1_2"/>
<feBlend mode="normal" in="SourceGraphic" in2="effect1_dropShadow_1_2" result="shape"/>
</filter>
<clipPath id="clip0_1_2">
<rect width="311" height="76" fill="white" transform="translate(4)"/>
</clipPath>
</defs>
</svg>
